<svg height="800" width="800" xmlns="http://www.w3.org/2000/svg" viewBox="0 0 59 59" xml:space="preserve">
  <path style="fill:#06c" d="M2.5 47.5a3.535 3.535 0 0 1 0-5L5 40l2.5 2.5a3.535 3.535 0 1 1-5 5"/>
  <ellipse transform="rotate(-45.001 18.89 20.356)" style="fill:#06c" cx="18.891" cy="20.355" rx="19" ry="5"/>
  <path style="fill:#ccc" d="M22.426 23.891c-7.42 7.42-15.018 11.852-16.971 9.899l24.749 24.749c1.953 1.953 9.551-2.48 16.971-9.899s11.852-15.018 9.899-16.971L32.326 6.92c1.953 1.953-2.48 9.551-9.9 16.971"/>
  <path style="fill:#888" d="m36.217 25.8 10.62 10.62c.4.4 1.06.397 1.444-.019 3.82-4.137 5.452-8.075 4.125-9.402l-13-12.87c1.225 1.225-.072 4.676-3.288 8.447-.807.947-.781 2.345.099 3.224m-18.49 14.444c-2.466 1.253-4.351 1.596-5.191.756l13 12.87c.844.844 2.443.151 4.845-1.206.58-.328.692-1.124.22-1.594L20.082 40.6a2.03 2.03 0 0 0-2.355-.356"/>
  <path style="fill:#06c" d="M5.829 29.456C4.572 32.126 4.672 33.63 4.536 35c-.67 6.75.305 2.983 6.169-2.726-1.699-.775-3.326-1.777-4.876-2.818"/>
  <path style="fill:#ccc" d="M39.675 55.102c2.363-1.709 4.94-3.902 7.5-6.462.269-.269.526-.538.787-.808L23.213 23.083c-.261.269-.517.539-.787.808-2.56 2.56-5.136 4.753-7.5 6.462z"/>
  <circle style="fill:#888" cx="27.536" cy="30" r="4"/>
  <path style="fill:#ccc" d="M27.536 34.5c-2.481 0-4.5-2.019-4.5-4.5s2.019-4.5 4.5-4.5 4.5 2.019 4.5 4.5-2.019 4.5-4.5 4.5m0-8c-1.93 0-3.5 1.57-3.5 3.5s1.57 3.5 3.5 3.5 3.5-1.57 3.5-3.5-1.571-3.5-3.5-3.5"/>
  <path style="fill:#888" d="M21.036 0c-4.136 0-7.5 3.364-7.5 7.5v11.215a73 73 0 0 1 1.82-1.895l.18-.176V7.5c0-3.032 2.468-5.5 5.5-5.5s5.5 2.468 5.5 5.5V30h2V7.5c0-4.136-3.365-7.5-7.5-7.5"/>
</svg>
