<?xml version="1.0" encoding="iso-8859-1"?>
<!-- Uploaded to: SVG Repo, www.svgrepo.com, Generator: SVG Repo Mixer Tools -->
<svg width="800" height="800" version="1.1" id="Layer_1" xmlns="http://www.w3.org/2000/svg" xmlns:xlink="http://www.w3.org/1999/xlink" 
     viewBox="0 0 512 512" xml:space="preserve">
    <polygon style="fill:#E6E9ED;" points="282.156,244.438 221.812,184.094 70.469,335.422 130.812,395.766 "/>
    <path style="fill:#ED5565;" d="M447.469,18.75c-24.969-25-65.5-25-90.5,0L191.156,184.562l90.5,90.516l165.812-165.797
        C472.469,84.281,472.469,43.75,447.469,18.75z"/>
    <path style="fill:#F6BB42;" d="M94.312,356.844l-8.906,8.906c-4.188,4.156-4.188,10.906,0,15.078c4.156,4.172,10.906,4.172,15.094,0
        l8.906-8.891L94.312,356.844z"/>
    <g>
        <path style="fill:#FFCE54;" d="M85.344,413.125L85.344,413.125L85.344,413.125L85.344,413.125L85.344,413.125
            c-0.281,0.203-39.531,27.312-39.562,59.312C45.781,494.297,63.5,512,85.344,512l0,0c0,0,0,0,0.031,0
            c21.844,0,39.562-17.703,39.562-39.562C124.906,440.438,85.656,413.328,85.344,413.125z"/>
        <polygon style="fill:#FFCE54;" points="236.656,289.938 115.969,289.938 70.469,335.422 130.812,395.766 	"/>
    </g>
</svg>