<svg height="800" width="800" xmlns="http://www.w3.org/2000/svg" viewBox="0 0 512 512" xml:space="preserve"><path style="fill:#555" d="M272.456 481.91a23.28 23.28 0 0 1-16.446 6.817l232.717-.002c12.851.002 23.273-10.418 23.271-23.271 0-12.854-10.42-23.273-23.271-23.273l-176.542-.002-23.273 23.273z"/><path style="fill:#ddd" d="m505.183 216.271-93.091-93.091-93.091-93.09c-5.112-5.112-12.01-7.35-18.686-6.71a23.3 23.3 0 0 0-8.592 2.557 23.3 23.3 0 0 0-5.633 4.153L118.528 197.653 6.819 309.362a23.264 23.264 0 0 0-.002 32.91l93.091 93.092 46.542 46.541.003.003c.54.54 1.105 1.05 1.686 1.528.141.116.295.214.438.326.458.357.914.711 1.393 1.033.133.088.278.164.414.253.507.323 1.015.641 1.544.923.098.051.202.095.299.146.576.296 1.162.582 1.763.832.064.028.135.048.2.074.635.258 1.28.493 1.938.694.073.025.152.037.227.059.65.191 1.308.362 1.975.496.188.036.383.053.571.087.559.098 1.12.194 1.686.251q1.145.115 2.321.116h93.091q.007-.002.011 0a23.28 23.28 0 0 0 16.446-6.817l16.457-16.457 23.273-23.273 25.434-25.435 167.563-167.562c9.09-9.086 9.09-23.824 0-32.911"/><path style="fill:#06c" d="m505.183 216.271-93.091-93.091-93.091-93.09c-9.089-9.089-23.823-9.089-32.912 0L118.528 197.653a23.2 23.2 0 0 0-6.819 16.455 23.2 23.2 0 0 0 6.817 16.457l93.091 93.091 76.637 76.635 16.454 16.455a23.2 23.2 0 0 0 16.457 6.817 23.2 23.2 0 0 0 16.455-6.819l167.563-167.562c9.09-9.086 9.09-23.824 0-32.911"/></svg>